<svg width="800" height="500" xmlns="http://www.w3.org/2000/svg">
  <defs>
    <linearGradient id="grad1" x1="0%" y1="0%" x2="100%" y2="100%">
      <stop offset="0%" style="stop-color:#9CAD8C;stop-opacity:1" />
      <stop offset="100%" style="stop-color:#7E8C69;stop-opacity:1" />
    </linearGradient>
  </defs>
  <rect width="800" height="500" fill="url(#grad1)"/>
  <g transform="translate(400, 200)">
    <!-- Messaging Icon -->
    <path d="M-60,-40 L60,-40 C70,-40 80,-30 80,-20 L80,20 C80,30 70,40 60,40 L-20,40 L-40,60 L-40,40 L-60,40 C-70,40 -80,30 -80,20 L-80,-20 C-80,-30 -70,-40 -60,-40 Z"
          fill="white" opacity="0.9"/>
    <!-- Message lines -->
    <line x1="-50" y1="-15" x2="50" y2="-15" stroke="#7E8C69" stroke-width="3" stroke-linecap="round"/>
    <line x1="-50" y1="0" x2="30" y2="0" stroke="#7E8C69" stroke-width="3" stroke-linecap="round"/>
    <line x1="-50" y1="15" x2="40" y2="15" stroke="#7E8C69" stroke-width="3" stroke-linecap="round"/>
  </g>
  <text x="400" y="350" font-family="Inter, Arial, sans-serif" font-size="28" font-weight="600" fill="white" text-anchor="middle">
    Enterprise Messaging Platform
  </text>
  <text x="400" y="385" font-family="Inter, Arial, sans-serif" font-size="16" fill="white" text-anchor="middle" opacity="0.9">
    Replace this placeholder with your project screenshot
  </text>
</svg>
